<mxfile host="app.diagrams.net" modified="2021-10-26T15:26:43.965Z" agent="5.0 (Windows NT 10.0; Win64; x64) AppleWebKit/537.36 (KHTML, like Gecko) Chrome/95.0.4638.54 Safari/537.36" etag="8HfxXYe5oE4Kikq2p7R7" version="15.5.9" type="github">
  <diagram id="NqV1ISIP5eGSaxMaWp6H" name="Page-1">
    <mxGraphModel dx="582" dy="1799" grid="1" gridSize="10" guides="1" tooltips="1" connect="1" arrows="1" fold="1" page="1" pageScale="1" pageWidth="827" pageHeight="1169" math="0" shadow="0">
      <root>
        <mxCell id="0" />
        <mxCell id="1" parent="0" />
        <mxCell id="h3vpw9Quzpp5Lechluel-3" value="" style="edgeStyle=orthogonalEdgeStyle;rounded=0;orthogonalLoop=1;jettySize=auto;html=1;" edge="1" parent="1" source="h3vpw9Quzpp5Lechluel-1" target="h3vpw9Quzpp5Lechluel-2">
          <mxGeometry relative="1" as="geometry" />
        </mxCell>
        <mxCell id="h3vpw9Quzpp5Lechluel-1" value="Algoritmo Calculadora3" style="ellipse;whiteSpace=wrap;html=1;" vertex="1" parent="1">
          <mxGeometry x="354" y="-1110" width="120" height="80" as="geometry" />
        </mxCell>
        <mxCell id="h3vpw9Quzpp5Lechluel-5" value="" style="edgeStyle=orthogonalEdgeStyle;rounded=0;orthogonalLoop=1;jettySize=auto;html=1;" edge="1" parent="1" source="h3vpw9Quzpp5Lechluel-2" target="h3vpw9Quzpp5Lechluel-4">
          <mxGeometry relative="1" as="geometry" />
        </mxCell>
        <mxCell id="h3vpw9Quzpp5Lechluel-9" value="" style="edgeStyle=orthogonalEdgeStyle;rounded=0;orthogonalLoop=1;jettySize=auto;html=1;" edge="1" parent="1" source="h3vpw9Quzpp5Lechluel-2" target="h3vpw9Quzpp5Lechluel-8">
          <mxGeometry relative="1" as="geometry" />
        </mxCell>
        <mxCell id="h3vpw9Quzpp5Lechluel-12" value="" style="edgeStyle=orthogonalEdgeStyle;rounded=0;orthogonalLoop=1;jettySize=auto;html=1;" edge="1" parent="1" source="h3vpw9Quzpp5Lechluel-2" target="h3vpw9Quzpp5Lechluel-11">
          <mxGeometry relative="1" as="geometry" />
        </mxCell>
        <mxCell id="h3vpw9Quzpp5Lechluel-20" style="edgeStyle=orthogonalEdgeStyle;rounded=0;orthogonalLoop=1;jettySize=auto;html=1;exitX=0.75;exitY=1;exitDx=0;exitDy=0;entryX=0.5;entryY=0;entryDx=0;entryDy=0;" edge="1" parent="1" source="h3vpw9Quzpp5Lechluel-2" target="h3vpw9Quzpp5Lechluel-22">
          <mxGeometry relative="1" as="geometry">
            <mxPoint x="594" y="-790" as="targetPoint" />
          </mxGeometry>
        </mxCell>
        <mxCell id="h3vpw9Quzpp5Lechluel-2" value="Read numero" style="whiteSpace=wrap;html=1;" vertex="1" parent="1">
          <mxGeometry x="354" y="-940" width="120" height="60" as="geometry" />
        </mxCell>
        <mxCell id="h3vpw9Quzpp5Lechluel-18" value="" style="edgeStyle=orthogonalEdgeStyle;rounded=0;orthogonalLoop=1;jettySize=auto;html=1;" edge="1" parent="1" source="h3vpw9Quzpp5Lechluel-4" target="h3vpw9Quzpp5Lechluel-17">
          <mxGeometry relative="1" as="geometry" />
        </mxCell>
        <mxCell id="h3vpw9Quzpp5Lechluel-4" value="numero&amp;lt;0" style="rhombus;whiteSpace=wrap;html=1;" vertex="1" parent="1">
          <mxGeometry x="70" y="-950" width="80" height="80" as="geometry" />
        </mxCell>
        <mxCell id="h3vpw9Quzpp5Lechluel-16" value="" style="edgeStyle=orthogonalEdgeStyle;rounded=0;orthogonalLoop=1;jettySize=auto;html=1;" edge="1" parent="1" source="h3vpw9Quzpp5Lechluel-6" target="h3vpw9Quzpp5Lechluel-15">
          <mxGeometry relative="1" as="geometry" />
        </mxCell>
        <mxCell id="h3vpw9Quzpp5Lechluel-6" value="Write&quot;La suma total es &quot;sumaTotal" style="whiteSpace=wrap;html=1;" vertex="1" parent="1">
          <mxGeometry x="354" y="-630" width="120" height="60" as="geometry" />
        </mxCell>
        <mxCell id="h3vpw9Quzpp5Lechluel-10" style="edgeStyle=orthogonalEdgeStyle;rounded=0;orthogonalLoop=1;jettySize=auto;html=1;entryX=1;entryY=0;entryDx=0;entryDy=0;" edge="1" parent="1" source="h3vpw9Quzpp5Lechluel-8" target="h3vpw9Quzpp5Lechluel-2">
          <mxGeometry relative="1" as="geometry">
            <mxPoint x="614" y="-1020" as="targetPoint" />
            <Array as="points">
              <mxPoint x="614" y="-940" />
            </Array>
          </mxGeometry>
        </mxCell>
        <mxCell id="h3vpw9Quzpp5Lechluel-8" value="numero&amp;gt;0" style="rhombus;whiteSpace=wrap;html=1;" vertex="1" parent="1">
          <mxGeometry x="574" y="-950" width="80" height="80" as="geometry" />
        </mxCell>
        <mxCell id="h3vpw9Quzpp5Lechluel-13" style="edgeStyle=orthogonalEdgeStyle;rounded=0;orthogonalLoop=1;jettySize=auto;html=1;exitX=0.25;exitY=0;exitDx=0;exitDy=0;entryX=0.25;entryY=1;entryDx=0;entryDy=0;" edge="1" parent="1" source="h3vpw9Quzpp5Lechluel-11" target="h3vpw9Quzpp5Lechluel-2">
          <mxGeometry relative="1" as="geometry">
            <mxPoint x="320" y="-830" as="targetPoint" />
          </mxGeometry>
        </mxCell>
        <mxCell id="h3vpw9Quzpp5Lechluel-14" value="" style="edgeStyle=orthogonalEdgeStyle;rounded=0;orthogonalLoop=1;jettySize=auto;html=1;" edge="1" parent="1" source="h3vpw9Quzpp5Lechluel-11" target="h3vpw9Quzpp5Lechluel-6">
          <mxGeometry relative="1" as="geometry" />
        </mxCell>
        <mxCell id="h3vpw9Quzpp5Lechluel-11" value="sumaTotal+=numero" style="whiteSpace=wrap;html=1;" vertex="1" parent="1">
          <mxGeometry x="354" y="-800" width="120" height="60" as="geometry" />
        </mxCell>
        <mxCell id="h3vpw9Quzpp5Lechluel-15" value="Fin Algoritmo Calucladora3" style="ellipse;whiteSpace=wrap;html=1;" vertex="1" parent="1">
          <mxGeometry x="354" y="-490" width="120" height="60" as="geometry" />
        </mxCell>
        <mxCell id="h3vpw9Quzpp5Lechluel-19" style="edgeStyle=orthogonalEdgeStyle;rounded=0;orthogonalLoop=1;jettySize=auto;html=1;exitX=0.75;exitY=0;exitDx=0;exitDy=0;entryX=0;entryY=0.75;entryDx=0;entryDy=0;" edge="1" parent="1" source="h3vpw9Quzpp5Lechluel-17" target="h3vpw9Quzpp5Lechluel-2">
          <mxGeometry relative="1" as="geometry">
            <mxPoint x="190" y="-840" as="targetPoint" />
          </mxGeometry>
        </mxCell>
        <mxCell id="h3vpw9Quzpp5Lechluel-17" value="Write &quot;Solo pueden ser positivos&quot;" style="whiteSpace=wrap;html=1;" vertex="1" parent="1">
          <mxGeometry x="50" y="-780" width="120" height="60" as="geometry" />
        </mxCell>
        <mxCell id="h3vpw9Quzpp5Lechluel-23" style="edgeStyle=orthogonalEdgeStyle;rounded=0;orthogonalLoop=1;jettySize=auto;html=1;entryX=1;entryY=0.5;entryDx=0;entryDy=0;exitX=0.5;exitY=1;exitDx=0;exitDy=0;" edge="1" parent="1" source="h3vpw9Quzpp5Lechluel-22" target="h3vpw9Quzpp5Lechluel-6">
          <mxGeometry relative="1" as="geometry" />
        </mxCell>
        <mxCell id="h3vpw9Quzpp5Lechluel-22" value="numero=&#39;q&#39;" style="rhombus;whiteSpace=wrap;html=1;" vertex="1" parent="1">
          <mxGeometry x="550" y="-810" width="80" height="80" as="geometry" />
        </mxCell>
      </root>
    </mxGraphModel>
  </diagram>
</mxfile>
